<svg width="30.000000" height="30.000000" viewBox="0 0 30 30" fill="none" xmlns="http://www.w3.org/2000/svg">
    <defs>
        <clipPath id="clip273_174">
            <rect id="svg" width="17.000000" height="17.000000" transform="translate(7.000000 7.000000)" fill="white"
                  fill-opacity="0"/>
        </clipPath>
    </defs>
    <rect id="Rectangle 34" rx="10.000000" width="30.000000" height="30.000000" fill="#FFFFFF" fill-opacity="1.000000"/>
    <g clip-path="url(#clip273_174)">
        <path id="path"
              d="M12.71 13.75C13.5 13.75 14.18 13.47 14.74 12.9C15.3 12.34 15.58 11.66 15.58 10.87C15.58 10.08 15.3 9.4 14.74 8.84C14.18 8.28 13.5 8 12.71 8C11.91 8 11.24 8.28 10.68 8.84C10.11 9.4 9.83 10.08 9.83 10.87C9.83 11.66 10.11 12.34 10.68 12.9C11.24 13.47 11.91 13.75 12.71 13.75ZM19.9 14.7C20.56 14.7 21.12 14.47 21.59 14C22.06 13.53 22.29 12.97 22.29 12.31C22.29 11.65 22.06 11.08 21.59 10.61C21.12 10.15 20.56 9.91 19.9 9.91C19.24 9.91 18.67 10.15 18.2 10.61C17.74 11.08 17.5 11.65 17.5 12.31C17.5 12.97 17.74 13.53 18.2 14C18.67 14.47 19.24 14.7 19.9 14.7ZM7.55 21.82C7.13 21.56 6.95 21.19 7 20.7C7.18 19.26 7.82 18.06 8.91 17.11C9.99 16.15 11.26 15.67 12.71 15.67C14.16 15.67 15.42 16.15 16.51 17.11C17.6 18.06 18.23 19.26 18.42 20.7C18.47 21.15 18.25 21.58 17.87 21.82C16.3 22.83 14.58 23.33 12.71 23.33C10.84 23.33 9.12 22.83 7.55 21.82ZM19.9 21.41L19.8 21.41C19.86 21.13 19.88 20.83 19.84 20.52C19.68 19.18 19.17 17.98 18.32 16.92C18.86 16.71 19.42 16.61 20 16.62C20.58 16.64 21.14 16.76 21.67 17C22.2 17.24 22.66 17.57 23.06 17.99C23.45 18.42 23.75 18.9 23.95 19.45C24.09 19.86 23.98 20.17 23.6 20.39C22.46 21.07 21.23 21.42 19.9 21.41Z"
              fill="#007BFF" fill-opacity="1.000000" fill-rule="nonzero"/>
    </g>
</svg>
