<svg width="30.000000" height="30.000000" viewBox="0 0 30 30" fill="none" xmlns="http://www.w3.org/2000/svg">
    <defs>
        <clipPath id="clip282_218">
            <rect id="svg" width="16.000000" height="16.000000" transform="translate(7.000000 7.000000)" fill="white"
                  fill-opacity="0"/>
        </clipPath>
        <clipPath id="clip411_532">
            <rect id="фрейм 15" width="20.000000" height="20.000000" transform="translate(5.000000 5.000000)"
                  fill="white" fill-opacity="0"/>
        </clipPath>
    </defs>
    <rect id="Rectangle 34" rx="10.000000" width="30.000000" height="30.000000" fill="#FFFFFF" fill-opacity="1.000000"/>
    <rect id="фрейм 15" width="20.000000" height="20.000000" transform="translate(5.000000 5.000000)" fill="#FFFFFF"
          fill-opacity="1.000000"/>
    <g clip-path="url(#clip411_532)">
        <g clip-path="url(#clip282_218)">
            <path id="path"
                  d="M12.37 13.35C13.12 13.35 13.76 13.08 14.29 12.56Q14.68 12.16 14.88 11.68Q15.08 11.2 15.08 10.64C15.08 9.9 14.82 9.26 14.29 8.73Q13.89 8.33 13.41 8.13Q12.93 7.94 12.37 7.94Q11.81 7.94 11.33 8.13Q10.86 8.33 10.46 8.73Q10.06 9.13 9.86 9.6Q9.67 10.08 9.67 10.64Q9.67 11.2 9.86 11.68Q10.06 12.16 10.46 12.56Q10.86 12.95 11.33 13.15Q11.81 13.35 12.37 13.35ZM19.14 14.25Q19.61 14.25 20 14.09Q20.4 13.92 20.73 13.59C21.17 13.15 21.39 12.62 21.39 12C21.39 11.37 21.17 10.84 20.73 10.4Q20.4 10.07 20 9.91Q19.61 9.74 19.14 9.74C18.52 9.74 17.98 9.96 17.54 10.4Q17.21 10.73 17.05 11.13Q16.88 11.53 16.88 12C16.88 12.62 17.1 13.15 17.54 13.59C17.98 14.03 18.52 14.25 19.14 14.25ZM7 19.89C6.95 20.35 7.12 20.71 7.52 20.95Q8.63 21.66 9.84 22.02Q11.05 22.37 12.37 22.37Q13.69 22.37 14.91 22.02L14.91 22.02Q16.12 21.66 17.23 20.95C17.59 20.72 17.8 20.31 17.74 19.89C17.57 18.54 16.97 17.41 15.95 16.51Q15.18 15.84 14.29 15.5L14.29 15.5Q13.4 15.16 12.37 15.16Q11.35 15.16 10.46 15.5Q9.56 15.84 8.79 16.51Q8.03 17.19 7.58 18.03Q7.13 18.88 7 19.89ZM19.14 20.57L19.04 20.57C19.11 20.3 19.12 20.01 19.09 19.72C18.93 18.46 18.45 17.33 17.65 16.34C18.16 16.14 18.69 16.04 19.24 16.06C19.78 16.07 20.31 16.19 20.8 16.41C21.3 16.63 21.74 16.95 22.11 17.35C22.48 17.75 22.76 18.2 22.95 18.71C23.09 19.1 22.98 19.39 22.63 19.6C21.55 20.25 20.39 20.57 19.14 20.57Z"
                  fill="#007BFF" fill-opacity="1.000000" fill-rule="evenodd"/>
        </g>
    </g>
</svg>
