<svg width="30.000000" height="30.000000" viewBox="0 0 30 30" fill="none" xmlns="http://www.w3.org/2000/svg">
    <defs>
        <clipPath id="clip283_1046">
            <rect id="Frame 6" width="20.000000" height="20.000000" transform="translate(5.000000 5.000000)"
                  fill="white" fill-opacity="0"/>
        </clipPath>
    </defs>
    <rect id="Rectangle 34" rx="10.000000" width="30.000000" height="30.000000" fill="#FFFFFF" fill-opacity="1.000000"/>
    <g clip-path="url(#clip283_1046)">
        <path id="Subtract"
              d="M8.59125 8.64978Q8.95215 8.50024 9.375 8.50024L11.8152 8.50024C13.0477 8.50024 14.2297 8.98987 15.1012 9.86133C15.9727 10.7329 17.1547 11.2224 18.3872 11.2224L21.625 11.2224C22.1888 11.2224 22.67 11.4218 23.0687 11.8204C23.4673 12.2191 23.6666 12.7003 23.6666 13.2642L23.6666 20.0697C23.6666 20.6334 23.4673 21.1147 23.0687 21.5133C22.67 21.912 22.1888 22.1113 21.625 22.1113L9.375 22.1113Q8.95215 22.1113 8.59119 21.9618Q8.23029 21.8124 7.93127 21.5133C7.53265 21.1147 7.33331 20.6334 7.33331 20.0697L7.33331 10.5419Q7.33331 10.119 7.48279 9.75818Q7.63232 9.39722 7.93127 9.09827Q8.23029 8.79919 8.59119 8.64978L8.59125 8.64978ZM16.3177 15.3342L16.3177 13.5288C16.3177 13.0955 15.9773 12.7551 15.544 12.7551C15.1108 12.7551 14.7703 13.0955 14.7703 13.5288L14.7703 15.3342L12.9651 15.3342C12.5319 15.3342 12.1915 15.6746 12.1915 16.1079C12.1915 16.5411 12.5319 16.8816 12.9651 16.8816L14.7703 16.8816L14.7703 18.6866C14.7703 19.1199 15.1108 19.4603 15.544 19.4603C15.9773 19.4603 16.3177 19.1199 16.3177 18.6866L16.3177 16.8816L18.123 16.8816C18.5563 16.8816 18.8967 16.5411 18.8967 16.1079C18.8967 15.6746 18.5563 15.3342 18.123 15.3342L16.3177 15.3342Z"
              clip-rule="evenodd" fill="#007BFF" fill-opacity="1.000000" fill-rule="evenodd"/>
    </g>
</svg>
