<svg width="30.000000" height="30.000000" viewBox="0 0 30 30" fill="none" xmlns="http://www.w3.org/2000/svg">
    <defs>
        <clipPath id="clip283_1046">
            <rect id="Frame 6" width="18.000000" height="18.000000" transform="translate(6.000000 6.000000)"
                  fill="white" fill-opacity="0"/>
        </clipPath>
    </defs>
    <rect id="Rectangle 34" rx="10.000000" width="30.000000" height="30.000000" fill="#FFFFFF" fill-opacity="1.000000"/>
    <g clip-path="url(#clip283_1046)">
        <path id="Subtract"
              d="M7.99538 8.31157C8.23933 8.21053 8.5042 8.16 8.79001 8.16L11.2641 8.16C12.5136 8.16 13.7121 8.65641 14.5957 9.54C15.4793 10.4236 16.6777 10.92 17.9273 10.92L21.21 10.92C21.7816 10.92 22.2695 11.1221 22.6737 11.5263C22.8758 11.7284 23.0274 11.9514 23.1284 12.1954L23.1285 12.1955C23.2295 12.4395 23.28 12.7043 23.28 12.99L23.28 19.89C23.28 20.4616 23.0779 20.9495 22.6737 21.3537C22.2695 21.7579 21.7816 21.96 21.21 21.96L8.79001 21.96C8.5042 21.96 8.2393 21.9095 7.99536 21.8084C7.7514 21.7074 7.52838 21.5558 7.32629 21.3537C6.9221 20.9495 6.72 20.4616 6.72 19.89L6.72 10.23C6.72 9.9442 6.77052 9.67932 6.87157 9.43537L6.87158 9.43536C6.97263 9.19141 7.12419 8.96839 7.32629 8.76629C7.52838 8.5642 7.7514 8.41262 7.99536 8.31158L7.99538 8.31157ZM15.8292 15.0891L15.8292 13.2588C15.8292 12.8195 15.4841 12.4744 15.0448 12.4744C14.6055 12.4744 14.2604 12.8195 14.2604 13.2588L14.2604 15.0891L12.4302 15.0891C11.991 15.0891 11.6458 15.4342 11.6458 15.8735C11.6458 16.3128 11.991 16.6579 12.4302 16.6579L14.2604 16.6579L14.2604 18.4883C14.2604 18.9275 14.6055 19.2727 15.0448 19.2727C15.4841 19.2727 15.8292 18.9275 15.8292 18.4883L15.8292 16.6579L17.6597 16.6579C18.099 16.6579 18.4442 16.3128 18.4442 15.8735C18.4442 15.4342 18.099 15.0891 17.6597 15.0891L15.8292 15.0891Z"
              clip-rule="evenodd" fill="#007BFF" fill-opacity="1.000000" fill-rule="evenodd"/>
    </g>
</svg>
