<svg width="30.000000" height="30.000000" viewBox="0 0 30 30" fill="none" xmlns="http://www.w3.org/2000/svg"
>
    <defs>
        <clipPath id="clip411_529">
            <rect id="svg" width="15.555556" height="15.555556" transform="translate(7.222229 7.222168)" fill="white"
                  fill-opacity="0"/>
        </clipPath>
        <clipPath id="clip411_525">
            <rect id="svg" width="20.000000" height="20.000000" transform="translate(5.000000 5.000000)" fill="white"
                  fill-opacity="0"/>
        </clipPath>
    </defs>
    <rect id="Rectangle 34" rx="10.000000" width="30.000000" height="30.000000" fill="#FFFFFF" fill-opacity="1.000000"/>
    <g clip-path="url(#clip411_525)">
        <g clip-path="url(#clip411_529)">
            <path id="path"
                  d="M14.5 7.23L14.13 7.27C12.31 7.45 10.47 8.39 9.23 9.78C7.86 11.31 7.16 13.21 7.23 15.24C7.34 18.74 9.74 21.71 13.16 22.55C15.27 23.06 17.25 22.74 19.1 21.6C20.9 20.48 22.05 18.89 22.55 16.83C22.72 16.15 22.76 15.8 22.76 15C22.76 14.19 22.72 13.84 22.55 13.16C21.78 10.02 19.19 7.7 15.97 7.28C15.69 7.24 14.69 7.21 14.5 7.23ZM15.82 8.74C16.5 8.82 17.14 9.02 17.76 9.32C18.43 9.65 18.9 9.98 19.45 10.54C19.96 11.03 20.37 11.59 20.67 12.23C21.11 13.12 21.3 13.98 21.3 15C21.31 15.98 21.1 16.91 20.66 17.78C20.49 18.12 20.15 18.67 20 18.86L15.51 14.48L11.07 10.05C11.26 9.89 11.87 9.5 12.21 9.33C13.35 8.76 14.56 8.57 15.82 8.74ZM14.49 15.51L18.92 19.95C18.58 20.2 18.16 20.47 17.78 20.66C17.17 20.96 16.53 21.16 15.85 21.26C15.44 21.32 14.55 21.32 14.14 21.26C12.25 20.97 10.65 19.94 9.64 18.35C9.39 17.94 9.19 17.51 9.02 17.06C8.64 15.91 8.58 14.75 8.84 13.57C9.04 12.73 9.4 11.95 9.91 11.25C9.97 11.16 10.04 11.08 10.04 11.08C10.05 11.08 12.05 13.08 14.49 15.51Z"
                  fill="#007BFF" fill-opacity="1.000000" fill-rule="evenodd"/>
        </g>
    </g>
</svg>
