<svg width="30.000000" height="30.000000" viewBox="0 0 30 30" fill="none" xmlns="http://www.w3.org/2000/svg">
    <defs>
        <clipPath id="clip315_313">
            <rect id="svg" width="18.000000" height="18.000000" transform="translate(6.000000 6.000000)" fill="white"
                  fill-opacity="0"/>
        </clipPath>
    </defs>
    <rect id="Rectangle 34" rx="10.000000" width="30.000000" height="30.000000" fill="#FFFFFF" fill-opacity="1.000000"/>
    <g clip-path="url(#clip315_313)">
        <path id="path"
              d="M23 14.39C23.42 14.07 23.55 13.66 23.39 13.15C23.23 12.65 22.88 12.39 22.35 12.39L17.85 12.22C17.8 12.21 17.77 12.19 17.75 12.14L16.2 7.94C16.02 7.45 15.67 7.21 15.15 7.21C14.64 7.21 14.29 7.45 14.11 7.94L12.56 12.16C12.54 12.2 12.51 12.23 12.46 12.23L7.96 12.4C7.43 12.41 7.08 12.67 6.92 13.17C6.76 13.67 6.89 14.08 7.31 14.4L10.85 17.18C10.88 17.21 10.9 17.25 10.89 17.29L9.67 21.6C9.53 22.1 9.67 22.5 10.09 22.81C10.51 23.11 10.93 23.12 11.36 22.83L15.09 20.33C15.13 20.3 15.17 20.3 15.22 20.33L18.95 22.83C19.37 23.13 19.79 23.13 20.22 22.83C20.64 22.52 20.78 22.12 20.64 21.63L19.41 17.31C19.4 17.26 19.41 17.22 19.45 17.19L23 14.39Z"
              fill="#007BFF" fill-opacity="1.000000" fill-rule="nonzero"/>
        <path id="path" d="M6 6L24 6L24 24L6 24L6 6Z" fill="#000000" fill-opacity="0" fill-rule="nonzero"/>
    </g>
</svg>
