<svg width="30.000000" height="30.000000" viewBox="0 0 30 30" fill="none" xmlns="http://www.w3.org/2000/svg">
    <defs>
        <clipPath id="clip315_313">
            <rect id="svg" width="20.000000" height="20.000000" transform="translate(5.000000 5.000000)" fill="white"
                  fill-opacity="0"/>
        </clipPath>
    </defs>
    <rect id="Rectangle 34" rx="10.000000" width="30.000000" height="30.000000" fill="#FFFFFF" fill-opacity="1.000000"/>
    <g clip-path="url(#clip315_313)">
        <path id="path"
              d="M22.56 13.92C22.97 13.62 23.1 13.22 22.94 12.73C22.79 12.25 22.45 12 21.94 11.99L17.6 11.83C17.55 11.82 17.52 11.8 17.5 11.75L16 7.7C15.83 7.23 15.49 7 14.99 7C14.49 7 14.16 7.23 13.99 7.7L12.49 11.77C12.47 11.81 12.44 11.84 12.39 11.84L8.05 12C7.54 12.01 7.2 12.26 7.05 12.75C6.89 13.23 7.02 13.63 7.43 13.93L10.83 16.61C10.87 16.64 10.89 16.68 10.87 16.73L9.7 20.89C9.56 21.37 9.7 21.76 10.1 22.05C10.51 22.34 10.92 22.35 11.33 22.07L14.93 19.65C14.97 19.63 15.01 19.63 15.05 19.65L18.65 22.07C19.06 22.36 19.47 22.36 19.88 22.07C20.29 21.78 20.42 21.39 20.29 20.91L19.1 16.74C19.09 16.69 19.1 16.65 19.14 16.62L22.56 13.92Z"
              fill="#007BFF" fill-opacity="1.000000" fill-rule="nonzero"/>
        <path id="path" d="M5 5L25 5L25 25L5 25L5 5Z" fill="#000000" fill-opacity="0" fill-rule="nonzero"/>
    </g>
</svg>
