<svg width="30.000000" height="30.000000" viewBox="0 0 30 30" fill="none" xmlns="http://www.w3.org/2000/svg">
    <defs>
        <clipPath id="clip331_363">
            <rect id="svg" width="20.000000" height="20.000000" transform="translate(5.000000 5.000000)" fill="white"
                  fill-opacity="0"/>
        </clipPath>
    </defs>
    <rect id="Rectangle 34" rx="10.000000" width="30.000000" height="30.000000" fill="#FFFFFF" fill-opacity="1.000000"/>
    <g clip-path="url(#clip331_363)">
        <path id="path"
              d="M13.91 7.23C14.59 7.17 15.19 7.36 15.71 7.81L15.83 7.92L22.07 14.17C22.52 14.61 22.75 15.15 22.77 15.78C22.79 16.41 22.59 16.96 22.18 17.44L22.07 17.55L17.55 22.07C17.11 22.52 16.57 22.75 15.94 22.77C15.31 22.79 14.76 22.59 14.28 22.18L14.17 22.07L7.92 15.82C7.44 15.34 7.2 14.76 7.22 14.08L7.23 13.91L7.6 9.77C7.65 9.22 7.87 8.75 8.25 8.35C8.62 7.95 9.08 7.7 9.63 7.62L9.77 7.6L13.91 7.23ZM11.91 11.91C11.59 12.22 11.44 12.6 11.44 13.04C11.44 13.48 11.59 13.85 11.91 14.17C12.22 14.48 12.6 14.63 13.04 14.63C13.48 14.63 13.85 14.48 14.17 14.17C14.48 13.85 14.63 13.48 14.63 13.04C14.63 12.6 14.48 12.22 14.17 11.91C13.85 11.6 13.48 11.44 13.04 11.44C12.6 11.44 12.22 11.6 11.91 11.91Z"
              fill="#007BFF" fill-opacity="1.000000" fill-rule="evenodd"/>
    </g>
</svg>
