<svg width="30.000000" height="30.000000" viewBox="0 0 30 30" fill="none" xmlns="http://www.w3.org/2000/svg">
    <defs>
        <clipPath id="clip331_363">
            <rect id="svg" width="17.000000" height="17.000000" transform="translate(7.000000 7.000001)" fill="white"
                  fill-opacity="0"/>
        </clipPath>
    </defs>
    <rect id="Rectangle 34" y="0.000001" rx="10.000000" width="30.000000" height="30.000000" fill="#FFFFFF"
          fill-opacity="1.000000"/>
    <g clip-path="url(#clip331_363)">
        <path id="path"
              d="M15.98 21.95L15.91 21.97C15.91 21.97 15.85 21.95 15.84 21.95L15.83 22.23L15.9 22.29L15.99 22.25L15.98 21.95ZM16.14 21.88L15.98 21.95L15.99 22.25L16.16 22.29L16.14 21.88ZM15.69 21.88L15.65 22.27L15.83 22.23L15.84 21.95L15.69 21.88Z"
              fill="#000000" fill-opacity="0" fill-rule="evenodd"/>
        <path id="path"
              d="M14.64 8.7C15.17 8.65 15.64 8.81 16.05 9.16L16.14 9.25L21.05 14.16C21.4 14.51 21.58 14.93 21.6 15.43C21.62 15.92 21.46 16.36 21.13 16.73L21.05 16.82L17.5 20.37C17.15 20.72 16.73 20.9 16.23 20.92C15.73 20.94 15.3 20.78 14.93 20.45L14.84 20.37L9.93 15.46C9.55 15.08 9.36 14.62 9.38 14.09L9.38 13.96L9.68 10.7C9.72 10.27 9.89 9.9 10.18 9.58C10.48 9.27 10.84 9.08 11.27 9.01L11.38 9L14.64 8.7ZM13.06 12.38C12.82 12.63 12.69 12.92 12.69 13.27C12.69 13.62 12.82 13.91 13.06 14.16C13.31 14.4 13.6 14.52 13.95 14.52C14.3 14.52 14.59 14.4 14.84 14.16C15.08 13.91 15.2 13.62 15.2 13.27C15.2 12.92 15.08 12.63 14.84 12.38C14.59 12.14 14.3 12.01 13.95 12.01C13.6 12.01 13.31 12.14 13.06 12.38Z"
              fill="#007BFF" fill-opacity="1.000000" fill-rule="evenodd"/>
    </g>
</svg>
