<svg width="30.000000" height="30.000000" viewBox="0 0 30 30" fill="none" xmlns="http://www.w3.org/2000/svg">
    <defs>
        <clipPath id="clip410_521">
            <rect id="фрейм 13" width="20.000000" height="20.000000" transform="translate(5.000000 5.000000)"
                  fill="white" fill-opacity="0"/>
        </clipPath>
    </defs>
    <rect id="Rectangle 34" rx="10.000000" width="30.000000" height="30.000000" fill="#FFFFFF" fill-opacity="1.000000"/>
    <rect id="фрейм 13" width="20.000000" height="20.000000" transform="translate(5.000000 5.000000)" fill="#FFFFFF"
          fill-opacity="1.000000"/>
    <g clip-path="url(#clip410_521)">
        <path id="path"
              d="M14.83 13.12C15.58 13.12 16.21 12.83 16.74 12.25C17.27 11.68 17.54 10.98 17.54 10.17C17.54 9.35 17.27 8.66 16.74 8.08C16.21 7.51 15.58 7.22 14.83 7.22C14.08 7.22 13.44 7.51 12.91 8.08C12.38 8.66 12.12 9.35 12.12 10.17C12.12 10.98 12.38 11.68 12.91 12.25C13.44 12.83 14.08 13.12 14.83 13.12ZM9.96 21.4C9.57 21.13 9.4 20.75 9.45 20.25C9.62 18.77 10.22 17.54 11.24 16.56C12.27 15.58 13.46 15.09 14.83 15.09C16.19 15.09 17.39 15.58 18.41 16.56C19.43 17.54 20.03 18.77 20.21 20.25C20.26 20.7 20.05 21.15 19.69 21.4C18.21 22.43 16.59 22.95 14.83 22.95C13.07 22.95 11.44 22.43 9.96 21.4Z"
              fill="#007BFF" fill-opacity="1.000000" fill-rule="nonzero"/>
    </g>
</svg>
