<svg width="30.000000" height="30.000000" viewBox="0 0 30 30" fill="none" xmlns="http://www.w3.org/2000/svg">
    <defs>
        <clipPath id="clip282_231">
            <rect id="svg" width="12.000000" height="16.000000" transform="translate(9.000000 7.000000)" fill="white"
                  fill-opacity="0"/>
        </clipPath>
    </defs>
    <rect id="Rectangle 34" rx="10.000000" width="30.000000" height="30.000000" fill="#FFFFFF" fill-opacity="1.000000"/>
    <g clip-path="url(#clip282_231)">
        <path id="path"
              d="M15 13.23C15.7 13.23 16.3 12.97 16.8 12.46C17.3 11.94 17.55 11.31 17.55 10.58C17.55 9.85 17.3 9.23 16.8 8.71C16.3 8.19 15.7 7.94 15 7.94C14.29 7.94 13.69 8.19 13.19 8.71C12.69 9.23 12.44 9.85 12.44 10.58C12.44 11.31 12.69 11.94 13.19 12.46C13.69 12.97 14.29 13.23 15 13.23ZM10.41 20.67C10.04 20.43 9.88 20.08 9.93 19.63C10.09 18.31 10.65 17.21 11.62 16.32C12.58 15.44 13.71 15 15 15C16.28 15 17.41 15.44 18.37 16.32C19.34 17.21 19.9 18.31 20.06 19.63C20.11 20.04 19.92 20.44 19.58 20.67C18.18 21.59 16.65 22.06 15 22.05C13.34 22.06 11.81 21.59 10.41 20.67Z"
              fill="#007BFF" fill-opacity="1.000000" fill-rule="nonzero"/>
    </g>
</svg>
