<svg width="30.000000" height="30.000000" viewBox="0 0 30 30" fill="none" xmlns="http://www.w3.org/2000/svg">
    <desc>
        Created with Pixso.
    </desc>
    <defs>
        <clipPath id="clip410_522">
            <rect id="фрейм 14" width="20.000000" height="20.000000" transform="translate(5.000000 5.000000)" fill="white" fill-opacity="0"/>
        </clipPath>
    </defs>
    <rect id="Logo" rx="10.000000" width="30.000000" height="30.000000" fill="#FFFFFF" fill-opacity="1.000000"/>
    <rect id="фрейм 14" width="20.000000" height="20.000000" transform="translate(5.000000 5.000000)" fill="#FFFFFF" fill-opacity="1.000000"/>
    <g clip-path="url(#clip410_522)">
        <path id="path" d="M16.01 21.06C15.52 21.06 15.11 20.67 15.11 20.16C15.11 19.65 15.49 19.24 15.98 19.24L16.01 21.06ZM21.89 19.26C22.37 19.26 22.77 19.65 22.77 20.16C22.77 20.67 22.39 21.08 21.9 21.08L21.89 19.26Z" fill="#000000" fill-opacity="0" fill-rule="nonzero"/>
        <path id="path" d="M16 21.02L15.98 21.04C15.49 21.04 15.1 20.65 15.1 20.16C15.1 19.67 15.49 19.29 15.98 19.29L16 19.31L16 21.02ZM21.88 19.31L21.9 19.29C22.39 19.29 22.78 19.67 22.78 20.16C22.78 20.65 22.39 21.04 21.9 21.04L21.88 21.02L21.88 19.31Z" fill="#000000" fill-opacity="0" fill-rule="nonzero"/>
        <path id="path" d="M15.98 20.16L21.9 20.16" stroke="#007BFF" stroke-opacity="1.000000" stroke-width="1.752790" stroke-linejoin="round" stroke-linecap="round"/>
        <path id="path" d="M7.5 10.46C7.16 10.09 7.13 9.52 7.47 9.15C7.82 8.79 8.37 8.79 8.72 9.15L7.5 10.46ZM7.5 10.46C7.16 10.09 7.13 9.52 7.47 9.15C7.82 8.79 8.37 8.79 8.72 9.15L7.5 10.46ZM8.72 20.78C8.37 21.14 7.82 21.17 7.47 20.81C7.13 20.45 7.13 19.87 7.47 19.5L8.72 20.78ZM8.72 20.78C8.37 21.14 7.82 21.17 7.47 20.81C7.13 20.45 7.13 19.87 7.47 19.5L8.72 20.78Z" fill="#000000" fill-opacity="0" fill-rule="nonzero"/>
        <path id="path" d="" fill="#000000" fill-opacity="0" fill-rule="nonzero"/>
        <path id="path" d="M8.1 20.16L13.03 14.99L8.1 9.81" stroke="#2D3436" stroke-opacity="1.000000" stroke-width="1.752790" stroke-linejoin="round"/>
    </g>
</svg>
